<svg
 xmlns="http://www.w3.org/2000/svg"
 width="1009px" height="1183px">
<defs>
<filter filterUnits="userSpaceOnUse" id="Filter_0" x="0px" y="0px" width="1009px" height="1183px"  >
    <feOffset in="SourceAlpha" dx="0" dy="7" />
    <feGaussianBlur result="blurOut" stdDeviation="2.646" />
    <feFlood flood-color="rgb(0, 0, 0)" result="floodOut" />
    <feComposite operator="atop" in="floodOut" in2="blurOut" />
    <feComponentTransfer><feFuncA type="linear" slope="0.75"/></feComponentTransfer>
    <feMerge>
    <feMergeNode/>
    <feMergeNode in="SourceGraphic"/>
  </feMerge>
</filter>

</defs>
<g filter="url(#Filter_0)">
<path fill-rule="evenodd"  fill="rgb(255, 255, 255)"
 d="M6.646,601.938 C6.646,592.098 6.646,582.258 6.646,572.418 C333.495,565.383 674.104,565.297 1001.292,572.158 C1001.292,582.042 1001.292,591.925 1001.292,601.808 C674.104,598.377 333.495,598.420 6.646,601.938 ZM907.689,469.296 C882.840,414.231 857.930,358.163 832.969,301.407 C825.304,313.921 817.634,326.520 809.960,339.197 C809.960,381.292 809.960,423.388 809.960,465.483 C782.412,464.563 754.807,463.769 727.162,463.104 C727.162,315.137 727.162,167.171 727.162,19.204 C754.807,21.625 782.412,24.509 809.960,27.857 C809.960,83.707 809.960,139.556 809.960,195.406 C817.044,179.773 824.124,164.232 831.200,148.790 C850.463,111.387 869.696,74.661 888.894,38.746 C920.630,43.647 952.270,49.169 983.791,55.312 C949.157,109.430 914.379,166.437 879.488,225.620 C920.259,310.632 960.877,393.839 1001.290,473.989 C970.203,472.258 938.995,470.694 907.689,469.296 ZM514.542,379.359 C547.250,379.397 562.113,362.855 564.491,322.984 C592.632,323.289 620.763,323.831 648.868,324.611 C647.088,418.545 598.999,468.225 514.542,468.225 C433.653,468.150 386.140,418.331 386.142,324.221 C386.142,266.125 386.142,208.029 386.142,149.933 C386.140,55.429 433.653,0.778 515.137,0.714 C598.403,1.153 644.713,55.981 647.680,150.492 C619.575,149.281 591.444,148.442 563.302,147.974 C560.924,106.795 546.655,89.668 514.542,89.578 C488.970,89.554 474.105,107.846 474.105,147.734 C474.105,206.095 474.105,264.457 474.105,322.818 C474.105,361.444 488.376,379.346 514.542,379.359 ZM210.800,112.195 C182.464,115.151 154.187,118.529 125.987,122.330 C125.987,237.788 125.987,353.246 125.987,468.704 C98.179,469.902 70.445,471.231 42.802,472.691 C42.802,333.150 42.802,193.609 42.802,54.068 C126.121,38.062 210.264,26.389 294.785,19.049 C294.785,167.053 294.785,315.057 294.785,463.061 C266.743,463.731 238.743,464.532 210.800,465.464 C210.800,347.707 210.800,229.951 210.800,112.195 ZM19.463,711.270 C49.580,712.118 79.810,712.887 110.133,713.577 C125.001,752.576 139.891,792.033 154.801,831.869 C169.514,793.472 184.247,754.613 198.997,715.368 C229.479,715.904 260.034,716.361 290.638,716.738 C260.034,787.783 229.479,857.801 198.997,926.193 C231.446,1003.462 263.976,1081.950 296.563,1160.934 C265.754,1158.641 234.995,1155.850 204.307,1152.562 C187.783,1107.081 171.280,1061.902 154.801,1017.133 C138.125,1058.802 121.475,1099.836 104.852,1140.123 C74.344,1135.757 43.932,1130.893 13.636,1125.532 C45.680,1059.763 77.854,990.978 110.133,919.900 C79.810,848.702 49.580,778.959 19.463,711.270 ZM549.037,718.046 C582.335,868.157 615.623,1017.798 648.873,1165.517 C619.779,1166.920 590.656,1167.882 561.523,1168.402 C556.965,1143.605 552.406,1118.785 547.848,1093.948 C518.513,1094.279 489.171,1094.225 459.840,1093.784 C455.281,1118.596 450.723,1143.386 446.166,1168.152 C417.036,1167.506 387.919,1166.418 358.834,1164.888 C392.074,1017.490 425.355,868.048 458.650,718.014 C488.775,718.101 518.910,718.111 549.037,718.046 ZM531.198,1007.173 C528.026,990.019 524.855,972.859 521.683,955.696 C516.331,923.513 509.195,868.776 505.032,832.067 C504.239,832.067 503.446,832.066 502.653,832.066 C498.490,868.768 491.949,923.488 486.003,955.649 C482.831,972.802 479.660,989.950 476.488,1007.090 C494.723,1007.238 512.961,1007.266 531.198,1007.173 ZM975.615,791.542 C927.720,794.081 879.553,796.224 831.200,797.970 C831.200,825.771 831.200,853.572 831.200,881.373 C844.172,880.670 857.132,879.924 870.076,879.135 C957.712,874.158 998.333,924.223 998.374,998.712 C998.333,1085.922 957.712,1134.489 870.076,1146.225 C829.086,1151.416 787.944,1155.715 746.704,1159.121 C746.704,1011.587 746.704,864.052 746.704,716.518 C823.462,715.496 899.878,713.976 975.615,711.957 C975.615,738.485 975.615,765.014 975.615,791.542 ZM831.200,1066.851 C841.814,1065.849 852.419,1064.796 863.014,1063.694 C894.797,1060.324 912.966,1043.401 912.970,1008.714 C912.966,973.380 894.797,959.249 863.014,961.741 C852.419,962.583 841.814,963.387 831.200,964.153 C831.200,998.386 831.200,1032.618 831.200,1066.851 Z"/>
</g>
</svg>
